Coordinates
version=1
nRows=13
nColumns=38
inDegrees=no

Units are S.I. units (second, meters, Newtons, ...)
If the header above contains a line with 'inDegrees', this indicates whether rotational values are in degrees (yes) or radians (no).

endheader
time	pelvis_tilt	pelvis_list	pelvis_rotation	pelvis_tx	pelvis_ty	pelvis_tz	hip_flexion_r	hip_adduction_r	hip_rotation_r	knee_angle_r	ankle_angle_r	subtalar_angle_r	mtp_angle_r	hip_flexion_l	hip_adduction_l	hip_rotation_l	knee_angle_l	ankle_angle_l	subtalar_angle_l	mtp_angle_l	lumbar_extension	lumbar_bending	lumbar_rotation	arm_flex_r	arm_add_r	arm_rot_r	elbow_flex_r	pro_sup_r	wrist_flex_r	wrist_dev_r	arm_flex_l	arm_add_l	arm_rot_l	elbow_flex_l	pro_sup_l	wrist_flex_l	wrist_dev_l
0.81	1.14139	1.53817	0.544012	0.570479	-0.0159075	0.943657	0.385734	-0.12923	-0.0858406	1.34715	-0.324993	0	0	0.0415135	-0.0105848	-0.151269	0.31552	-0.20959	0	0	-0.0579695	0.0545227	-0.110543	-0.0756747	-0.278042	0.214396	0.807927	1.5708	0	0	-0.0299189	-0.273041	0.315344	0.806211	1.5708	0	0
0.82	1.25756	1.5348	0.429865	0.5696	-0.00776224	0.944138	0.403092	-0.127495	-0.0922835	1.33139	-0.317516	0	0	0.0311286	-0.0175607	-0.158378	0.320873	-0.205982	0	0	-0.060881	0.0614289	-0.123165	-0.0698543	-0.28252	0.223898	0.803998	1.5708	0	0	-0.0268814	-0.272761	0.30226	0.81795	1.5708	0	0
0.83	1.37133	1.532	0.31705	0.568867	0.000370318	0.944545	0.418565	-0.126167	-0.0989896	1.31245	-0.305287	0	0	0.0185403	-0.0235645	-0.165971	0.324401	-0.198988	0	0	-0.067109	0.0680428	-0.124233	-0.0761576	-0.282055	0.20364	0.809746	1.5708	0	0	-0.0152743	-0.272056	0.300123	0.826796	1.5708	0	0
0.84	1.47356	1.52966	0.215408	0.568205	0.00854465	0.944837	0.432716	-0.12632	-0.107737	1.29093	-0.294457	0	0	0.00420291	-0.0281994	-0.171716	0.324622	-0.193887	0	0	-0.0733679	0.0735219	-0.125809	-0.0805325	-0.282594	0.189228	0.813834	1.5708	0	0	-0.00482228	-0.272118	0.297564	0.836315	1.5708	0	0
0.85	1.63241	1.52753	0.0572177	0.567507	0.0167228	0.945173	0.442013	-0.128306	-0.120781	1.26635	-0.281809	0	0	-0.0149246	-0.0318619	-0.176212	0.321613	-0.188422	0	0	-0.0828893	0.0786624	-0.134226	-0.0734818	-0.296919	0.217852	0.816544	1.51809	0	0	-0.00159446	-0.273194	0.280929	0.851327	1.5708	0	0
0.86	1.72079	1.52587	-0.0299661	0.56684	0.0249342	0.945218	0.453883	-0.132792	-0.139946	1.23875	-0.278823	0	0	-0.0285048	-0.0353603	-0.182676	0.323749	-0.183973	0	0	-0.0894409	0.0823553	-0.136033	-0.0777719	-0.295657	0.20076	0.819563	1.52564	0	0	0.00817007	-0.272332	0.280776	0.860971	1.5708	0	0
0.87	1.82193	1.52433	-0.129137	0.566103	0.0331769	0.945194	0.463648	-0.140873	-0.168586	1.20714	-0.281779	0	0	-0.0433478	-0.037899	-0.187679	0.325148	-0.179443	0	0	-0.097197	0.0855939	-0.138324	-0.0818532	-0.29566	0.186453	0.823084	1.53162	0	0	0.0177913	-0.27266	0.277973	0.871487	1.5708	0	0
0.88	1.89568	1.52302	-0.201135	0.565524	0.0415055	0.944997	0.472693	-0.148984	-0.195688	1.17136	-0.288133	0	0	-0.0583561	-0.0395824	-0.18939	0.323388	-0.175336	0	0	-0.103685	0.0882673	-0.140694	-0.0852912	-0.295523	0.173966	0.82562	1.53774	0	0	0.0264636	-0.272792	0.274391	0.881984	1.5708	0	0
0.89	1.93802	1.52177	-0.243163	0.565224	0.0498136	0.944575	0.481187	-0.153652	-0.214731	1.13233	-0.293129	0	0	-0.0698747	-0.0422486	-0.19481	0.327056	-0.170321	0	0	-0.108601	0.0906284	-0.142053	-0.0875664	-0.29544	0.163962	0.826724	1.54311	0	0	0.0345389	-0.273	0.27095	0.891976	1.5708	0	0
0.9	1.96043	1.52086	-0.265943	0.565054	0.0581179	0.944	0.48872	-0.156123	-0.228794	1.09019	-0.296185	0	0	-0.0803735	-0.0447061	-0.200053	0.33081	-0.16464	0	0	-0.11269	0.092547	-0.143016	-0.0887586	-0.294888	0.15464	0.826362	1.54809	0	0	0.042027	-0.273748	0.267474	0.901745	1.5708	0	0
0.91	1.99406	1.51993	-0.29994	0.564937	0.0664352	0.943417	0.492915	-0.15704	-0.239824	1.04356	-0.296483	0	0	-0.0928555	-0.0464036	-0.202607	0.331161	-0.157273	0	0	-0.119001	0.0943522	-0.145776	-0.0892816	-0.288165	0.133035	0.824726	1.5708	0	0	0.0457261	-0.272901	0.25535	0.915171	1.5708	0	0
0.92	1.95873	1.52111	-0.265104	0.5649	0.0749042	0.942414	0.499811	-0.157878	-0.248248	0.995007	-0.291927	0	0	-0.100884	-0.0468355	-0.20412	0.331789	-0.153897	0	0	-0.117511	0.0947698	-0.145058	-0.0900901	-0.29251	0.136969	0.822582	1.56052	0	0	0.0550989	-0.274086	0.259216	0.919665	1.5708	0	0
0.93	1.92715	1.5221	-0.234078	0.564961	0.0833882	0.941291	0.503975	-0.157347	-0.254537	0.941383	-0.285788	0	0	-0.10692	-0.0483423	-0.209499	0.338386	-0.147093	0	0	-0.117806	0.0952815	-0.146136	-0.090753	-0.2908	0.128442	0.819995	1.56918	0	0	0.0603961	-0.273738	0.254327	0.928099	1.5708	0	0
